<mxfile host="Electron" agent="Mozilla/5.0 (Windows NT 10.0; Win64; x64) AppleWebKit/537.36 (KHTML, like Gecko) draw.io/24.7.8 Chrome/128.0.6613.36 Electron/32.0.1 Safari/537.36" version="24.7.8">
  <diagram name="Página-1" id="zHf-De_0YgwU8nZIfRBL">
    <mxGraphModel dx="1985" dy="1782" grid="1" gridSize="10" guides="1" tooltips="1" connect="1" arrows="1" fold="1" page="1" pageScale="1" pageWidth="1169" pageHeight="827" math="0" shadow="0">
      <root>
        <mxCell id="0" />
        <mxCell id="1" parent="0" />
        <mxCell id="ibJseN1AM8IzNhhCGjHs-1" value="&lt;font style=&quot;font-size: 24px;&quot;&gt;&amp;nbsp; &amp;nbsp;TWITTER&lt;span style=&quot;white-space: pre;&quot;&gt;&#x9;&lt;/span&gt;&lt;span style=&quot;white-space: pre;&quot;&gt;&#x9;&lt;/span&gt;&lt;/font&gt;&lt;div&gt;&lt;br&gt;&lt;/div&gt;&lt;div&gt;&lt;br&gt;&lt;/div&gt;&lt;div&gt;-USUARIO&lt;/div&gt;&lt;div&gt;-CORREO&lt;/div&gt;&lt;div&gt;-CONTRASEÑA&lt;/div&gt;&lt;div&gt;-NUMERO TELEFONO&lt;/div&gt;" style="rounded=0;whiteSpace=wrap;html=1;fillColor=#0050ef;fontColor=#ffffff;strokeColor=#001DBC;" vertex="1" parent="1">
          <mxGeometry x="50" y="40" width="180" height="210" as="geometry" />
        </mxCell>
        <mxCell id="ibJseN1AM8IzNhhCGjHs-2" value="&lt;font style=&quot;font-size: 24px;&quot;&gt;INSTAGRAM&lt;/font&gt;&lt;div&gt;&lt;font style=&quot;font-size: 24px;&quot;&gt;&lt;br&gt;&lt;/font&gt;&lt;/div&gt;&lt;div&gt;&lt;font style=&quot;font-size: 24px;&quot;&gt;&lt;div style=&quot;font-size: 12px;&quot;&gt;-USUARIO&lt;/div&gt;&lt;div style=&quot;font-size: 12px;&quot;&gt;-CORREO&lt;/div&gt;&lt;div style=&quot;font-size: 12px;&quot;&gt;-CONTRASEÑA&lt;/div&gt;&lt;div style=&quot;font-size: 12px;&quot;&gt;-NUMERO TELEFONO&lt;/div&gt;&lt;/font&gt;&lt;/div&gt;" style="rounded=0;whiteSpace=wrap;html=1;fillColor=#0050ef;fontColor=#ffffff;strokeColor=#001DBC;" vertex="1" parent="1">
          <mxGeometry x="260" y="50" width="180" height="210" as="geometry" />
        </mxCell>
        <mxCell id="ibJseN1AM8IzNhhCGjHs-3" value="&lt;font style=&quot;font-size: 24px;&quot;&gt;PORNHUB&lt;/font&gt;&lt;div&gt;&lt;font style=&quot;font-size: 24px;&quot;&gt;&lt;br&gt;&lt;/font&gt;&lt;/div&gt;&lt;div&gt;&lt;font style=&quot;font-size: 24px;&quot;&gt;&lt;div style=&quot;font-size: 12px;&quot;&gt;-USUARIO&lt;/div&gt;&lt;div style=&quot;font-size: 12px;&quot;&gt;-CORREO&lt;/div&gt;&lt;div style=&quot;font-size: 12px;&quot;&gt;-CONTRASEÑA&lt;/div&gt;&lt;div style=&quot;font-size: 12px;&quot;&gt;-NUMERO TELEFONO&lt;/div&gt;&lt;/font&gt;&lt;/div&gt;" style="rounded=0;whiteSpace=wrap;html=1;fillColor=#0050ef;fontColor=#ffffff;strokeColor=#001DBC;" vertex="1" parent="1">
          <mxGeometry x="470" y="50" width="180" height="210" as="geometry" />
        </mxCell>
        <mxCell id="ibJseN1AM8IzNhhCGjHs-4" value="&lt;font style=&quot;font-size: 24px;&quot;&gt;DROPBOX&lt;/font&gt;&lt;div&gt;&lt;font style=&quot;font-size: 24px;&quot;&gt;&lt;br&gt;&lt;/font&gt;&lt;/div&gt;&lt;div&gt;&lt;font style=&quot;font-size: 24px;&quot;&gt;&lt;div style=&quot;font-size: 12px;&quot;&gt;-USUARIO&lt;/div&gt;&lt;div style=&quot;font-size: 12px;&quot;&gt;-CORREO&lt;/div&gt;&lt;div style=&quot;font-size: 12px;&quot;&gt;-CONTRASEÑA&lt;/div&gt;&lt;div style=&quot;font-size: 12px;&quot;&gt;-NUMERO TELEFONO&lt;/div&gt;&lt;/font&gt;&lt;/div&gt;" style="rounded=0;whiteSpace=wrap;html=1;fillColor=#0050ef;fontColor=#ffffff;strokeColor=#001DBC;" vertex="1" parent="1">
          <mxGeometry x="50" y="290" width="180" height="210" as="geometry" />
        </mxCell>
        <mxCell id="ibJseN1AM8IzNhhCGjHs-5" value="&lt;font style=&quot;font-size: 24px;&quot;&gt;YOUTUBE&lt;/font&gt;&lt;div&gt;&lt;font style=&quot;font-size: 24px;&quot;&gt;&lt;br&gt;&lt;/font&gt;&lt;/div&gt;&lt;div&gt;&lt;font style=&quot;font-size: 24px;&quot;&gt;&lt;div style=&quot;font-size: 12px;&quot;&gt;-USUARIO&lt;/div&gt;&lt;div style=&quot;font-size: 12px;&quot;&gt;-CORREO&lt;/div&gt;&lt;div style=&quot;font-size: 12px;&quot;&gt;-CONTRASEÑA&lt;/div&gt;&lt;div style=&quot;font-size: 12px;&quot;&gt;-NUMERO TELEFONO&lt;/div&gt;&lt;/font&gt;&lt;/div&gt;" style="rounded=0;whiteSpace=wrap;html=1;fillColor=#0050ef;fontColor=#ffffff;strokeColor=#001DBC;" vertex="1" parent="1">
          <mxGeometry x="260" y="290" width="180" height="210" as="geometry" />
        </mxCell>
        <mxCell id="ibJseN1AM8IzNhhCGjHs-6" value="&lt;font style=&quot;font-size: 24px;&quot;&gt;TELEGRAM&lt;/font&gt;&lt;div&gt;&lt;font style=&quot;font-size: 24px;&quot;&gt;&lt;br&gt;&lt;/font&gt;&lt;/div&gt;&lt;div&gt;&lt;font style=&quot;font-size: 24px;&quot;&gt;&lt;div style=&quot;font-size: 12px;&quot;&gt;-USUARIO&lt;/div&gt;&lt;div style=&quot;font-size: 12px;&quot;&gt;-CORREO&lt;/div&gt;&lt;div style=&quot;font-size: 12px;&quot;&gt;-CONTRASEÑA&lt;/div&gt;&lt;div style=&quot;font-size: 12px;&quot;&gt;-NUMERO TELEFONO&lt;/div&gt;&lt;/font&gt;&lt;/div&gt;" style="rounded=0;whiteSpace=wrap;html=1;fillColor=#0050ef;fontColor=#ffffff;strokeColor=#001DBC;" vertex="1" parent="1">
          <mxGeometry x="480" y="290" width="180" height="210" as="geometry" />
        </mxCell>
        <mxCell id="ibJseN1AM8IzNhhCGjHs-7" value="&lt;font style=&quot;font-size: 24px;&quot;&gt;GMAIL&lt;/font&gt;&lt;div&gt;&lt;font size=&quot;3&quot;&gt;&lt;br&gt;&lt;/font&gt;&lt;/div&gt;&lt;div&gt;&lt;div&gt;&lt;font size=&quot;3&quot;&gt;-USUARIO&lt;/font&gt;&lt;/div&gt;&lt;div&gt;&lt;font size=&quot;3&quot;&gt;-CORREO&lt;/font&gt;&lt;/div&gt;&lt;div&gt;&lt;font size=&quot;3&quot;&gt;-CONTRASEÑA&lt;/font&gt;&lt;/div&gt;&lt;div&gt;&lt;font size=&quot;3&quot;&gt;-NUMERO TELEFONO&lt;/font&gt;&lt;/div&gt;&lt;/div&gt;" style="rounded=0;whiteSpace=wrap;html=1;fillColor=#0050ef;fontColor=#ffffff;strokeColor=#001DBC;" vertex="1" parent="1">
          <mxGeometry x="690" y="50" width="180" height="210" as="geometry" />
        </mxCell>
        <mxCell id="ibJseN1AM8IzNhhCGjHs-8" value="&lt;font style=&quot;font-size: 24px;&quot;&gt;AMAZON&lt;/font&gt;&lt;div&gt;&lt;font style=&quot;font-size: 24px;&quot;&gt;&lt;div style=&quot;font-size: 12px;&quot;&gt;-USUARIO&lt;/div&gt;&lt;div style=&quot;font-size: 12px;&quot;&gt;-CORREO&lt;/div&gt;&lt;div style=&quot;font-size: 12px;&quot;&gt;-CONTRASEÑA&lt;/div&gt;&lt;div style=&quot;font-size: 12px;&quot;&gt;-NUMERO TELEFONO&lt;/div&gt;&lt;/font&gt;&lt;/div&gt;" style="rounded=0;whiteSpace=wrap;html=1;fillColor=#0050ef;fontColor=#ffffff;strokeColor=#001DBC;" vertex="1" parent="1">
          <mxGeometry x="700" y="300" width="180" height="210" as="geometry" />
        </mxCell>
        <mxCell id="ibJseN1AM8IzNhhCGjHs-9" value="&lt;div&gt;&lt;font style=&quot;font-size: 36px;&quot;&gt;BD&lt;/font&gt;&lt;/div&gt;&lt;font style=&quot;font-size: 36px;&quot;&gt;FILTRACIONES&lt;/font&gt;&lt;div&gt;&lt;br&gt;&lt;/div&gt;&lt;div&gt;&lt;br&gt;&lt;/div&gt;&lt;div&gt;&lt;font style=&quot;font-size: 14px;&quot;&gt;LISTAR (por gmail,usuario,telefono)&lt;/font&gt;&lt;/div&gt;&lt;div&gt;&lt;font size=&quot;3&quot;&gt;LISTAR TODAS LAS FILTRACIONES&lt;/font&gt;&lt;/div&gt;&lt;div&gt;&lt;font size=&quot;3&quot;&gt;Añadir filtracion&lt;/font&gt;&lt;/div&gt;&lt;div&gt;&lt;font size=&quot;3&quot;&gt;quitar filtracion&lt;/font&gt;&lt;/div&gt;&lt;div&gt;&lt;font size=&quot;3&quot;&gt;&lt;br&gt;&lt;/font&gt;&lt;/div&gt;" style="rounded=0;whiteSpace=wrap;html=1;fillColor=#60a917;fontColor=#ffffff;strokeColor=#2D7600;" vertex="1" parent="1">
          <mxGeometry x="280" y="-400" width="440" height="330" as="geometry" />
        </mxCell>
        <mxCell id="ibJseN1AM8IzNhhCGjHs-10" value="&lt;font style=&quot;font-size: 36px;&quot;&gt;Por ejemplo: buscar ejemplo@gmail.com&lt;/font&gt;&lt;div&gt;&lt;font size=&quot;3&quot;&gt;&lt;br&gt;&lt;/font&gt;&lt;/div&gt;&lt;div&gt;&lt;font size=&quot;3&quot;&gt;Y te mostraria por ejemplo&lt;/font&gt;&lt;/div&gt;&lt;div&gt;&lt;font size=&quot;3&quot;&gt;&lt;br&gt;&lt;/font&gt;&lt;/div&gt;&lt;div&gt;&lt;font size=&quot;3&quot;&gt;Twitter&lt;/font&gt;&lt;/div&gt;&lt;div&gt;&lt;font size=&quot;3&quot;&gt;instagram&lt;/font&gt;&lt;/div&gt;&lt;div&gt;&lt;font size=&quot;3&quot;&gt;pornhub&lt;/font&gt;&lt;/div&gt;" style="rounded=0;whiteSpace=wrap;html=1;" vertex="1" parent="1">
          <mxGeometry x="760" y="-330" width="370" height="230" as="geometry" />
        </mxCell>
        <mxCell id="ibJseN1AM8IzNhhCGjHs-12" value="LISTAR TODAS" style="rounded=0;whiteSpace=wrap;html=1;fillColor=#a20025;fontColor=#ffffff;strokeColor=#6F0000;" vertex="1" parent="1">
          <mxGeometry x="40" y="-350" width="200" height="50" as="geometry" />
        </mxCell>
        <mxCell id="ibJseN1AM8IzNhhCGjHs-13" value="LISTAR POR USUARIO/EMAIL/CONTRASEÑA" style="rounded=0;whiteSpace=wrap;html=1;fillColor=#a20025;fontColor=#ffffff;strokeColor=#6F0000;" vertex="1" parent="1">
          <mxGeometry x="35" y="-290" width="210" height="50" as="geometry" />
        </mxCell>
        <mxCell id="ibJseN1AM8IzNhhCGjHs-14" value="AÑADIR UNA FILTRACION" style="rounded=0;whiteSpace=wrap;html=1;fillColor=#a20025;fontColor=#ffffff;strokeColor=#6F0000;" vertex="1" parent="1">
          <mxGeometry x="35" y="-230" width="210" height="50" as="geometry" />
        </mxCell>
        <mxCell id="ibJseN1AM8IzNhhCGjHs-15" value="MODIFICAR UNA FILTRACION" style="rounded=0;whiteSpace=wrap;html=1;fillColor=#a20025;fontColor=#ffffff;strokeColor=#6F0000;" vertex="1" parent="1">
          <mxGeometry x="35" y="-170" width="210" height="50" as="geometry" />
        </mxCell>
        <mxCell id="ibJseN1AM8IzNhhCGjHs-20" value="CRUD" style="rhombus;whiteSpace=wrap;html=1;fillColor=#a20025;fontColor=#ffffff;strokeColor=#6F0000;" vertex="1" parent="1">
          <mxGeometry x="100" y="-453" width="80" height="80" as="geometry" />
        </mxCell>
        <mxCell id="ibJseN1AM8IzNhhCGjHs-21" value="ELIMINAR UNA FILTRACION" style="rounded=0;whiteSpace=wrap;html=1;fillColor=#a20025;fontColor=#ffffff;strokeColor=#6F0000;" vertex="1" parent="1">
          <mxGeometry x="35" y="-110" width="210" height="50" as="geometry" />
        </mxCell>
      </root>
    </mxGraphModel>
  </diagram>
</mxfile>
